<?xml version="1.0" encoding="utf-8"?>
<!-- Generator: Adobe Illustrator 19.0.0, SVG Export Plug-In . SVG Version: 6.00 Build 0)  -->
<svg version="1.1" id="Layer_1" xmlns="http://www.w3.org/2000/svg" xmlns:xlink="http://www.w3.org/1999/xlink" x="0px" y="0px"
	 viewBox="-861.5 -167.1 1280 1920" style="enable-background:new -861.5 -167.1 1280 1920;" xml:space="preserve">
<style type="text/css">
	.st0{fill:url(#SVGID_1_);}
	.st1{fill:url(#SVGID_2_);}
	.st2{fill:#0D4439;}
	.st3{fill:#FFFFFF;}
</style>
<title>Asset 16</title>
<g id="Layer_2">
	<g id="Layer_1-2">
		<g>
			
				<linearGradient id="SVGID_1_" gradientUnits="userSpaceOnUse" x1="-221.47" y1="-663.9739" x2="-221.47" y2="209.8539" gradientTransform="matrix(1 0 0 -1 0 565.88)">
				<stop  offset="0" style="stop-color:#55A7FF"/>
				<stop  offset="0.21" style="stop-color:#607AE8"/>
				<stop  offset="0.63" style="stop-color:#7623BC"/>
				<stop  offset="0.82" style="stop-color:#7F00AA"/>
			</linearGradient>
			<circle class="st0" cx="-221.5" cy="792.9" r="436.9"/>
			
				<linearGradient id="SVGID_2_" gradientUnits="userSpaceOnUse" x1="-511.4911" y1="-59.6146" x2="68.5512" y2="-394.5054" gradientTransform="matrix(1 0 0 -1 0 565.88)">
				<stop  offset="0" style="stop-color:#2AFFF0"/>
				<stop  offset="0.22" style="stop-color:#1BC7C9"/>
				<stop  offset="0.62" style="stop-color:#005D7F"/>
			</linearGradient>
			<circle class="st1" cx="-221.5" cy="792.9" r="334.8"/>
			<g id="logo_1">
				<polygon class="st2" points="-68.4,895 -163.1,846.8 -261.4,907.9 -193.8,817.3 -283.3,699.4 -157.5,781.8 -79.6,739.8 
					-123.2,810.4 				"/>
				<polygon class="st2" points="82.8,591.8 45.6,662.2 -9.8,673 				"/>
				<path class="st2" d="M15.3,973l-75.4-68.6l-0.4,0.8l-0.7-0.6c-31.4,34.2-75.9,53.6-122.4,53.1c-88,0-159.4-66.4-159.4-148.2
					c0.2-39.1,16.4-76.4,44.9-103.2l-27.6-45.4l57.4,20.4c25.6-16.4,51.2-20.1,84.7-20.1c48.6-0.5,94.9,20.7,126.3,57.8l39.2-38.4
					c-43.1-57.8-114.8-95.7-196.2-95.7c-44.3-0.1-87.8,11.4-126.1,33.6l-53-19l23.8,39c-51,40.8-83.2,101-83.2,168.4
					c0,69.4,34.3,131.4,87.9,172.1l-52.5,63.9l83.2-44c36.8,19.8,78,30.2,119.9,30.1c64.5,0.4,126.7-24.4,173.1-69.3L15.3,973z"/>
			</g>
			<g id="logo_1-2">
				<polygon class="st3" points="-95.5,868.4 -181.8,821.2 -271.5,881 -209.8,792.3 -291.4,676.7 -176.7,757.4 -105.7,716.3 
					-145.4,785.5 				"/>
				<polygon class="st3" points="42.4,571.2 8.6,640.1 -42,650.8 				"/>
				<path class="st3" d="M-19.1,944.9L-88,877.6l-0.3,0.8l-0.7-0.6c-51.8,61.3-143.4,69.1-204.7,17.3s-69.1-143.4-17.3-204.7
					c2-2.4,4.1-4.7,6.3-6.9l-25.2-44.6l52.4,20.1c23.4-16.1,46.7-19.7,77.3-19.7c45.1,0,87.6,20.9,115,56.7l35.7-37.7
					c-66-95.5-195.4-122.3-293.9-60.9l-48.4-18.6l21.7,38.2c-91.2,78.2-101.8,215.5-23.6,306.8c8.4,9.9,17.7,18.9,27.8,27.1
					l-47.6,62.4l75.9-43.2c87.2,50.8,197.8,34.8,267.2-38.4L-19.1,944.9z"/>
			</g>
		</g>
	</g>
</g>
</svg>
